# xmcd
#
# Track frame offsets:
#	150
#	30879
#	51216
#	70748
#	96541
#	115649
#	131395
#	155725
#	181922
#	211333
#	232754
#	253352
#
# Disc length: 3786 seconds
#
# Revision: 0
# Processed by: cddbd v1.5.2PL0 Copyright (c) Steve Scherf et al.
# Submitted via: EasyCDDAExtractor 15.2.5.1
#
DISCID=9d0ec80c
DTITLE=Joe Bonamassa - Dust Bowl
DYEAR=2011
DGENRE=Blues
TTITLE0=Slow Train
TTITLE1=Dust Bowl
TTITLE2=Tennessee Plates
TTITLE3=The Meaning of the Blues
TTITLE4=Black Lung Heartache
TTITLE5=You Better Watch Yourself
TTITLE6=The Last Matador of Bayonne
TTITLE7=Heartbreaker
TTITLE8=No Love on the Street
TTITLE9=The Whale That Swallowed Jonah
TTITLE10=Sweet Rowena
TTITLE11=Prisoner
EXTD=
EXTT0=
EXTT1=
EXTT2=
EXTT3=
EXTT4=
EXTT5=
EXTT6=
EXTT7=
EXTT8=
EXTT9=
EXTT10=
EXTT11=
PLAYORDER=
